<svg height="512" viewBox="0 0 64 64" width="512" xmlns="http://www.w3.org/2000/svg"><g><g><g><g><path d="m29 37h22a10 10 0 0 1 10 10v14a0 0 0 0 1 0 0h-42a0 0 0 0 1 0 0v-14a10 10 0 0 1 10-10z" fill="#84d2f4"/><path d="m56 48v-9.651a9.937 9.937 0 0 0 -5-1.349h-22a10 10 0 0 0 -10 10v14h42v-8a5 5 0 0 1 -5-5z" fill="#57b7eb"/><path d="m40 4a12 12 0 0 1 12 12 0 0 0 0 1 0 0h-24a0 0 0 0 1 0 0 12 12 0 0 1 12-12z" fill="#f8664f"/><path d="m34.461 10.427a2 2 0 0 0 1.954 1.573h5.785l.744-7.622a11.967 11.967 0 0 0 -2.944-.378 11.941 11.941 0 0 0 -6.522 1.935z" fill="#cc5144"/><rect fill="#e59730" height="6" rx="3" width="30" x="25" y="20"/><path d="m34 31h12a0 0 0 0 1 0 0v6a6 6 0 0 1 -6 6 6 6 0 0 1 -6-6v-6a0 0 0 0 1 0 0z" fill="#fcbc04"/><path d="m42 41a6 6 0 0 1 -5.236-3.074 10.883 10.883 0 0 0 9.236-3.397v-3.529h-12v6a6 6 0 0 0 11.119 3.119 5.968 5.968 0 0 1 -3.119.881z" fill="#e59730"/><path d="m29 20h22a0 0 0 0 1 0 0v5a11 11 0 0 1 -11 11 11 11 0 0 1 -11-11v-5a0 0 0 0 1 0 0z" fill="#f9e109"/><rect fill="#f89c8d" height="4" rx="2" width="28" x="26" y="16"/><path d="m44.2 12 .8-8.25a17.042 17.042 0 0 0 -10 0l.8 8.25z" fill="#f89c8d"/><path d="m54 55h7v6h-7z" fill="#f9e109"/><path d="m19 55h7v6h-7z" fill="#f9e109"/><path d="m28 16a2 2 0 0 0 0 4h24a2 2 0 0 0 2-2h-24a2 2 0 0 1 -2-2z" fill="#f8664f"/><path d="m37 14a5 5 0 0 1 -5-5v-1.926a11.954 11.954 0 0 0 -4 8.926h24a11.986 11.986 0 0 0 -.18-2z" fill="#cc5144"/><path d="m42.341 10a5 5 0 0 1 -4.977-4.515l-.218-2.236a16.991 16.991 0 0 0 -2.146.501l.8 8.25h8.4l.2-2z" fill="#f8664f"/><path d="m44 35a11 11 0 0 1 -11-11v-1h18v-3h-22v5a10.981 10.981 0 0 0 15.629 9.968c-.209.012-.417.032-.629.032z" fill="#fcbc04"/><path d="m52 37h-6l-6 16v8h14v-10z" fill="#f9e109"/><path d="m28 37h6l6 16v8h-14v-10z" fill="#f9e109"/><path d="m51.61 59a6 6 0 0 1 -5.834-7.4l3.504-14.6h-3.28l-6 16v8h14v-2z" fill="#fcbc04"/><path d="m40 57h14v4h-14z" fill="#f89c8d"/><path d="m51.61 59a5.95 5.95 0 0 1 -4.46-2h-7.15v4h14v-2z" fill="#f8664f"/><path d="m36.6 59a5 5 0 0 1 -4.983-4.585l-1.45-17.415h-2.167l-2 14v10h14v-2z" fill="#fcbc04"/><path d="m26 57h14v4h-14z" fill="#f89c8d"/><path d="m32.6 57h-6.6v4h14v-2h-3.4a5 5 0 0 1 -4-2z" fill="#f8664f"/></g><g><g><path d="m19 53v-4h-8v-4h-8v16h24v-8z" fill="#f8664f"/><g fill="#cc5144"><path d="m23 59a2 2 0 0 1 -2-2h-2v4h8v-2z"/><path d="m15 59a2 2 0 0 1 -2-2h-2v4h8v-2z"/><path d="m7 59a2 2 0 0 1 -2-2h-2v4h8v-2z"/><path d="m23 55a2 2 0 0 1 -2-2h-2v4h8v-2z"/><path d="m15 55a2 2 0 0 1 -2-2h-2v4h8v-2z"/><path d="m7 55a2 2 0 0 1 -2-2h-2v4h8v-2z"/><path d="m7 47a2 2 0 0 1 -2-2h-2v4h8v-2z"/><path d="m15 51a2 2 0 0 1 -2-2h-2v4h8v-2z"/><path d="m7 51a2 2 0 0 1 -2-2h-2v4h8v-2z"/><path d="m19 53v-4h-8v-4h-7.723a1.971 1.971 0 0 0 2.723.723 1.987 1.987 0 0 0 1 .277c.061 0 .119-.013.178-.018a2.989 2.989 0 0 0 1.84 1.84c-.005.059-.018.117-.018.178a1.992 1.992 0 0 0 3.5 1.31 1.985 1.985 0 0 0 1.5.69c.061 0 .119-.013.178-.018a2.99 2.99 0 0 0 2.822 2.018 1.992 1.992 0 0 0 3.5 1.31 1.98 1.98 0 0 0 3.223-.31z"/></g></g><path d="m24 50a1.985 1.985 0 0 0 -1.5.69 1.992 1.992 0 0 0 -.732-.536 3 3 0 0 0 -4.444-3.642 1.972 1.972 0 0 0 -2.824.178l-.012-.014a3 3 0 0 0 -4.164-4.164 1.958 1.958 0 0 0 -2.324-.235 2 2 0 1 0 0 3.446 1.987 1.987 0 0 0 1 .277c.061 0 .119-.013.178-.018a2.989 2.989 0 0 0 1.84 1.84c-.005.059-.018.117-.018.178a1.992 1.992 0 0 0 3.5 1.31 1.985 1.985 0 0 0 1.5.69c.061 0 .119-.013.178-.018a2.99 2.99 0 0 0 2.822 2.018 1.992 1.992 0 0 0 3.5 1.31 2 2 0 1 0 1.5-3.31z" fill="#d0d8da"/><path d="m25 52a1.985 1.985 0 0 1 -1.5-.69 1.992 1.992 0 0 1 -3.5-1.31 2.99 2.99 0 0 1 -2.822-2.018c-.059.005-.117.018-.178.018a1.985 1.985 0 0 1 -1.5-.69 1.992 1.992 0 0 1 -3.5-1.31c0-.061.013-.119.018-.178a2.989 2.989 0 0 1 -1.84-1.84c-.059.005-.117.018-.178.018a1.987 1.987 0 0 1 -1-.277 1.978 1.978 0 0 1 -2.973-1.46 1.992 1.992 0 1 0 1.973 3.46 1.987 1.987 0 0 0 1 .277c.061 0 .119-.013.178-.018a2.989 2.989 0 0 0 1.84 1.84c-.005.059-.018.117-.018.178a1.992 1.992 0 0 0 3.5 1.31 1.985 1.985 0 0 0 1.5.69c.061 0 .119-.013.178-.018a2.99 2.99 0 0 0 2.822 2.018 1.992 1.992 0 0 0 3.5 1.31 1.992 1.992 0 0 0 3.5-1.31 1.905 1.905 0 0 0 -.027-.263 1.972 1.972 0 0 1 -.973.263z" fill="#93999a"/><g><rect fill="#f9e109" height="10" rx="2" transform="matrix(-.707 -.707 .707 -.707 13.37 49.186)" width="4" x="14.872" y="16.824"/><path d="m6.265 38.087a1.477 1.477 0 0 1 -.313-1.626l2.989-6.975a1.478 1.478 0 0 1 2.4-.463l3.986 3.986a1.477 1.477 0 0 1 -.462 2.4l-6.973 2.991a1.478 1.478 0 0 1 -1.627-.313z" fill="#d0d8da"/><path d="m15.072 32.752-6.18 2.648a1.474 1.474 0 0 1 -2.028-1.067l-.912 2.127a1.478 1.478 0 0 0 1.94 1.94l6.975-2.99a1.477 1.477 0 0 0 .462-2.4z" fill="#93999a"/><path d="m20.407 19.117-4.242 4.242a2 2 0 0 1 -2.829 0 1.976 1.976 0 0 1 -.309-.414 2 2 0 0 0 3.138 2.414l4.242-4.242a1.994 1.994 0 0 0 .31-2.414 2.007 2.007 0 0 1 -.31.414z" fill="#fcbc04"/></g></g><path d="m56 60a3 3 0 0 1 3-3h2v-2h-7v6h2z" fill="#fcbc04"/></g></g><g><g fill="#323232"><path d="m35.707 24.293a1 1 0 0 0 1.414-1.414 3 3 0 0 0 -4.242 0 1 1 0 0 0 1.414 1.414 1 1 0 0 1 1.414 0z"/><path d="m44.293 24.293a1 1 0 0 1 1.414 0 1 1 0 0 0 1.414-1.414 3 3 0 0 0 -4.242 0 1 1 0 0 0 1.414 1.414z"/><path d="m45.657 29.657a1 1 0 1 0 -1.414-1.414 6.008 6.008 0 0 1 -8.486 0 1 1 0 1 0 -1.414 1.414 8.01 8.01 0 0 0 11.314 0z"/><path d="m49 52a1 1 0 0 0 0-2h-3a1 1 0 0 0 0 2z"/><path d="m34 50h-3a1 1 0 0 0 0 2h3a1 1 0 0 0 0-2z"/><path d="m61 52a1 1 0 0 0 -1 1v1h-5v-3a.969.969 0 0 0 -.01-.142l-.554-3.882a1 1 0 1 0 -1.981.283l.545 3.812v4.929h-9a1 1 0 0 0 0 2h9v3a1 1 0 0 0 2 0v-5h5v5a1 1 0 0 0 2 0v-8a1 1 0 0 0 -1-1z"/><path d="m51 36h-4v-1.273a12 12 0 0 0 4.819-7.727h.181a3.987 3.987 0 0 0 2.381-7.195 2.972 2.972 0 0 0 .619-1.805 3 3 0 0 0 -3-3h-16a1 1 0 0 0 0 2h16a1 1 0 0 1 0 2h-24a1 1 0 0 1 0-2h4a1 1 0 0 0 0-2h-2.949a10.982 10.982 0 0 1 1.337-4.336l.683 1.708a1 1 0 0 0 1.858-.744l-1.163-2.907a10.984 10.984 0 0 1 2.509-2.1l.535 5.479a1 1 0 0 0 1.99-.2l-.724-7.416a16.108 16.108 0 0 1 7.848 0l-.724 7.416a1 1 0 0 0 .9 1.1.788.788 0 0 0 .1.005 1 1 0 0 0 .994-.9l.534-5.468a11.077 11.077 0 0 1 2.505 2.1l-1.158 2.895a1 1 0 0 0 1.858.744l.675-1.69a10.938 10.938 0 0 1 .761 1.652 1 1 0 0 0 1.885-.668 12.963 12.963 0 0 0 -1.736-3.27l.411-1.025a1 1 0 0 0 -1.858-.744l-.028.072a13 13 0 0 0 -3.108-2.24l.065-.616a1 1 0 0 0 -.7-1.053 18.122 18.122 0 0 0 -10.588 0 1 1 0 0 0 -.7 1.053l.059.6a12.975 12.975 0 0 0 -3.121 2.236l-.021-.055a1 1 0 0 0 -1.858.744l.407 1.017a12.981 12.981 0 0 0 -2.448 6.786 2.968 2.968 0 0 0 -1.411 4.63 3.987 3.987 0 0 0 2.381 7.195h.181a12 12 0 0 0 4.819 7.727v1.273h-4a10.959 10.959 0 0 0 -9.8 6.011 1 1 0 0 0 .437 1.345.984.984 0 0 0 .453.109 1 1 0 0 0 .892-.546 8.955 8.955 0 0 1 5.859-4.642 2.71 2.71 0 0 0 -.071.3l-1.529 10.7a2.937 2.937 0 0 0 -2.24-.1c0-.058 0-.117 0-.176a4 4 0 0 0 -5.62-3.658 2.971 2.971 0 0 0 -1.381-.343 4 4 0 0 0 -5.62-3.658 2.967 2.967 0 0 0 -2.38-.164 2.937 2.937 0 0 0 -1-.178 3 3 0 0 0 -3 3h-1a1 1 0 0 0 -1 1v8a1 1 0 0 0 1 1h7v6h-6v-2h3a1 1 0 0 0 0-2h-4a1 1 0 0 0 -1 1v4a1 1 0 0 0 1 1h24a1 1 0 0 0 1-1v-3h11v3a1 1 0 0 0 2 0v-7.819l5.693-15.181h3.573a1 1 0 0 1 .989.859l.635 4.441a1 1 0 0 0 1.98-.283l-.635-4.439a2.765 2.765 0 0 0 -.072-.3 9.007 9.007 0 0 1 6.837 8.722v2a1 1 0 0 0 2 0v-2a11.013 11.013 0 0 0 -11-11zm-11 14.152-2.482-6.619a6.829 6.829 0 0 0 4.964 0zm12-25.152v-4a2 2 0 0 1 0 4zm-26-2a2 2 0 0 1 2-2v4a2 2 0 0 1 -2-2zm4 2v-4h20v4a10 10 0 0 1 -20 0zm10 12a11.916 11.916 0 0 0 5-1.1v.923l-1.339 3.57a4.963 4.963 0 0 1 -7.322 0l-1.339-3.575v-.918a11.916 11.916 0 0 0 5 1.1zm-20 19v-1.175a2.955 2.955 0 0 0 2.5-.233 2.957 2.957 0 0 0 3.5-.372v1.78zm-8-5.177a2.942 2.942 0 0 0 2.5-.231 2.986 2.986 0 0 0 1.027.37 3.982 3.982 0 0 0 .873 1.038h-4.4zm0 3.177h6v2h-6zm-4.5-10.859a1 1 0 0 0 1.008 0 1.033 1.033 0 0 1 1.155.117 1 1 0 0 0 1.225.082 2 2 0 0 1 2.775 2.776 1.022 1.022 0 0 0 .06 1.2 1 1 0 0 0 .76.376 1.029 1.029 0 0 0 .774-.342.973.973 0 0 1 1.406-.09 1 1 0 0 0 1.225.082 2 2 0 0 1 2.962 2.429 1 1 0 0 0 .539 1.309.963.963 0 0 1 .361.269 1 1 0 0 0 1.507 0 .988.988 0 0 1 .743-.349 1 1 0 0 1 0 2 .988.988 0 0 1 -.747-.348 1 1 0 0 0 -1.506 0 .988.988 0 0 1 -.747.348 1 1 0 0 1 -1-1 1 1 0 0 0 -1-1 2 2 0 0 1 -1.878-1.347 1.109 1.109 0 0 0 -1.122-.653.988.988 0 0 1 -.747-.348 1.034 1.034 0 0 0 -1.506 0 .992.992 0 0 1 -1.747-.631l.014-.118a1 1 0 0 0 -.668-1.026 1.98 1.98 0 0 1 -1.225-1.224 1.1 1.1 0 0 0 -1.121-.653.971.971 0 0 1 -.5-.141 1 1 0 0 0 -1.008 0 .995.995 0 1 1 0-1.718zm-3.5 2.859h.78a2.985 2.985 0 0 0 2.22 1 2.937 2.937 0 0 0 1-.178 2.871 2.871 0 0 0 .526.138 3.969 3.969 0 0 0 .857 1.04h-5.383zm0 4h6v2h-6zm8 8h6v2h-6zm14 2h-6v-2h6zm2-4v-3a1 1 0 0 0 -1-1 3.006 3.006 0 0 0 -.079-.662.971.971 0 0 0 .069-.2l1.755-12.284a1 1 0 0 1 .989-.854h3.573l5.693 15.181v2.819z"/><path d="m5.559 38.794a2.462 2.462 0 0 0 2.726.524l6.975-2.988a2.478 2.478 0 0 0 .776-4.029l-1.414-1.414a2.967 2.967 0 0 0 -.578-3.407.991.991 0 0 1 -.291-.717 3.026 3.026 0 0 0 1 .18 2.991 2.991 0 0 0 2.122-.878l4.242-4.242a3 3 0 0 0 0-4.242 3 3 0 0 0 -4.242 0l-4.243 4.242a3 3 0 0 0 -.508 3.535 3 3 0 0 0 .5 3.529l-.572-.572a2.477 2.477 0 0 0 -4.029.776l-2.99 6.975a2.462 2.462 0 0 0 .526 2.728zm8.484-15.556 4.243-4.238a1 1 0 0 1 1.414 0 1 1 0 0 1 0 1.414l-4.242 4.242a1 1 0 0 1 -1.414 0 1 1 0 0 1 -.001-1.418zm-7.172 13.617 2.989-6.975a.465.465 0 0 1 .349-.28.426.426 0 0 1 .1-.01.463.463 0 0 1 .333.14l1.285 1.286-.707.708a1 1 0 1 0 1.414 1.414l.707-.708 1.286 1.287a.477.477 0 0 1 -.149.775l-6.978 2.989a.47.47 0 0 1 -.524-.1.475.475 0 0 1 -.105-.526z"/></g></g></g></svg>